<?xml version="1.0" standalone="no"?>
<!DOCTYPE svg PUBLIC "-//W3C//DTD SVG 20010904//EN"
 "http://www.w3.org/TR/2001/REC-SVG-20010904/DTD/svg10.dtd">
<svg version="1.0" xmlns="http://www.w3.org/2000/svg"
 width="182.000000pt" height="182.000000pt" viewBox="0 0 182.000000 182.000000"
 preserveAspectRatio="xMidYMid meet">
<metadata>
Created by potrace 1.14, written by Peter Selinger 2001-2017
</metadata>
<g transform="translate(0.000000,182.000000) scale(0.100000,-0.100000)"
fill="#000000" stroke="none">
<path d="M935 1528 c-17 -4 -38 -20 -47 -36 -15 -25 -48 -111 -52 -137 -8 -45
-62 -180 -78 -195 -11 -10 -66 -37 -122 -60 -211 -88 -226 -99 -226 -171 0
-33 25 -61 100 -112 25 -17 47 -34 50 -37 3 -4 15 -12 28 -19 12 -6 22 -15 22
-20 0 -4 -127 -8 -282 -9 l-282 0 -24 -27 c-29 -34 -28 -39 33 -260 69 -252
73 -265 102 -276 13 -5 188 -9 393 -9 l370 0 87 106 c49 58 93 120 99 137 20
56 49 59 214 21 80 -19 154 -36 165 -38 54 -11 115 47 110 104 -2 14 -23 89
-49 168 -25 78 -46 151 -46 161 0 10 39 82 86 160 47 77 86 153 88 168 3 33
-18 74 -46 92 -14 9 -71 13 -187 13 -109 -1 -173 4 -187 11 -12 7 -56 53 -99
102 -151 176 -157 180 -220 163z"/>
</g>
</svg>
